<?xml version="1.0" encoding="utf-8"?>
<!-- Generator: Adobe Illustrator 19.0.0, SVG Export Plug-In . SVG Version: 6.00 Build 0)  -->
<svg version="1.1" id="Слой_1" xmlns="http://www.w3.org/2000/svg" xmlns:xlink="http://www.w3.org/1999/xlink" x="0px" y="0px"
	 viewBox="2604 -786.3 5819.1 2365.3" style="enable-background:new 2604 -786.3 5819.1 2365.3;" xml:space="preserve">
<style type="text/css">
	.st0{fill:#F57921;}
	.st1{fill:#F8F7F3;}
	.st2{fill:#F9F8F4;}
	.st3{fill:none;}
	.st4{fill:#F3F3F3;}
</style>
<circle class="st0" cx="3786.6" cy="396.3" r="1182.6"/>
<g>
	<path class="st1" d="M2986.6,396.2c0-167.8,0-335.7,0-503.5c0-2-0.1-4,0.1-6c0.5-5.6,4.8-9.8,10.4-10.4c1.8-0.2,3.7-0.2,5.5-0.2
		c278.2,0,556.3,0.1,834.5-0.1c72,0,136.5,21.2,192.4,66.5c60.2,48.8,96.2,112,108.4,188.7c2.6,16.2,3.4,32.5,3.4,48.8
		c0,240,0,480,0,720c0,2.3,0,4.7-0.4,7c-0.9,5.3-4.9,8.9-10.2,9.4c-1.7,0.2-3.3,0.1-5,0.1c-71.3,0-142.7,0-214,0
		c-12.1,0-15.8-3.7-15.8-15.8c0-212.8-0.1-425.7,0.1-638.5c0-40.9-12.1-77.5-38.6-108.7c-33.6-39.6-77-58.9-128.7-58.9
		c-159.3-0.1-318.7-0.1-478,0c-11.4,0-15.1,4-15.1,16c0,262.8,0,525.7,0,788.5c0,2.7,0,5.4-0.4,8c-1,5.6-5.1,9-10.7,9.4
		c-1.5,0.1-3,0-4.5,0c-72.5,0-145,0-217.5,0c-11.9,0-15.5-3.6-15.5-15.4C2986.6,732.8,2986.6,564.5,2986.6,396.2z"/>
	<path class="st2" d="M4586.7,396.3c0,167.6,0,335.3,0,502.9c0,1.7,0,3.3,0,5c-0.2,7.8-4.7,12.4-12.6,12.4c-74.5,0-149,0-223.5,0
		c-7.6,0-12.1-4.3-12.6-11.9c-0.1-1.5-0.1-3-0.1-4.5c0-335.8,0-671.5,0-1007.3c0-2.5,0-5,0.5-7.5c0.9-5.1,4.8-8.5,9.9-9.1
		c1.6-0.2,3.3-0.2,5-0.2c72.7,0,145.3,0,218,0c1.2,0,2.3,0,3.5,0.1c7.3,0.4,11.7,4.8,11.8,12.2c0.1,10.8,0,21.7,0,32.5
		C4586.7,79.3,4586.7,237.8,4586.7,396.3z"/>
	<path class="st2" d="M3686.5,599c0,100.2,0,200.3,0,300.5c0,1.5,0,3,0,4.5c-0.3,8.1-4.8,12.6-12.9,12.6c-25.8,0.1-51.7,0-77.5,0
		c-47.8,0-95.7,0-143.5,0c-10.8,0-14.8-4-14.8-14.7c0-201.8,0-403.6,0-605.5c0-10.9,4.2-15,15.2-15c72.8,0,145.7,0,218.5,0
		c11,0,15.1,4.1,15.1,15.1C3686.5,397.3,3686.5,498.1,3686.5,599z"/>
</g>
<g>
	<rect x="5100.5" y="-110.9" class="st3" width="3077.6" height="1296.3"/>
	<path class="st4" d="M5282.8-66.8l180.4,650.2l179.7-649.6c3.4-13.1,11.1-23.9,23.1-32.6c12-8.7,25.8-13,41.5-13
		c13.5,0,26.3,3.9,38.3,11.7s20.3,18.9,25,33.2l180.3,650.2l181-650.2c3-9.3,8.2-17.7,15.8-25.3c13.1-13.1,28.9-19.6,47.5-19.6
		c18.6,0,34.3,6.5,47.1,19.6c12.9,13.1,19.3,28.9,19.3,47.5c-0.4,8.5-1.9,17.3-4.4,26.6l-238.6,864.8c-5.9,16.5-14.8,29.7-26.6,39.6
		s-25.5,14.9-41.1,14.9c-19,0-34.6-6.8-46.8-20.3c-8.9-9.3-15.6-20.3-20.3-32.9l-176.5-640.1l-176.6,638.8
		c-5.9,16.5-14.8,29.7-26.6,39.6s-25.5,14.9-41.1,14.9c-19,0-34.8-6.8-47.5-20.3c-8.4-8.4-15-19.4-19.6-32.9L5156.3-18.8
		c-2.5-9.7-3.8-18.4-3.8-26c0-18.6,6.5-34.4,19.6-47.5s28.9-19.6,47.5-19.6s34.4,6.5,47.5,19.6C5274.1-84.5,5279.4-76.1,5282.8-66.8
		z"/>
	<path class="st4" d="M6545.3,66.2c0,21.6-7.6,40-22.8,55.2s-33.5,22.8-55.1,22.8s-39.9-7.6-55-22.8s-22.8-33.6-22.8-55.2
		s7.6-40,22.8-55.2s33.5-22.8,55-22.8s39.9,7.6,55.1,22.8S6545.3,44.7,6545.3,66.2z M6401.5,834.8V258.9c0-18.6,6.4-34.3,19.3-47.1
		c12.8-12.9,28.3-19.3,46.4-19.3c18.1,0,33.6,6.4,46.4,19.3c12.8,12.9,19.5,28.6,19.9,47.1v575.9c-0.4,18.6-7,34.3-19.9,47.2
		c-12.9,12.9-28.3,19.3-46.4,19.3c-18.1,0-33.6-6.4-46.4-19.3S6401.5,853.3,6401.5,834.8z"/>
	<path class="st4" d="M6667.3,834.2V-43.7c0-9.3,1.7-18,5-26.3c3.3-8.3,8.1-15.4,14.2-21.5c6.1-6.1,13.2-10.9,21.2-14.2
		c8-3.4,16.9-5.1,26.5-5.1h585.3c18.6,0,34.4,6.5,47.5,19.6s19.6,28.9,19.6,47.4s-6.5,34.3-19.6,47.4s-28.9,19.6-47.5,19.6h-518.3
		v305h372.1c18.6,0,34.4,6.5,47.5,19.6s19.6,28.9,19.6,47.4s-6.5,34.3-19.6,47.4s-28.9,19.6-47.5,19.6h-372.1v372
		c0,18.6-6.5,34.4-19.6,47.4c-13.1,13.1-28.9,19.6-47.4,19.6s-34.3-6.5-47.4-19.6C6673.8,868.6,6667.3,852.7,6667.3,834.2z"/>
	<path class="st4" d="M7659,66.2c0,21.6-7.6,40-22.8,55.2s-33.5,22.8-55.1,22.8s-39.9-7.6-55-22.8s-22.8-33.6-22.8-55.2
		s7.6-40,22.8-55.2s33.5-22.8,55-22.8s39.9,7.6,55.1,22.8S7659,44.7,7659,66.2z M7515.3,834.8V258.9c0-18.6,6.4-34.3,19.3-47.1
		c12.8-12.9,28.3-19.3,46.4-19.3s33.6,6.4,46.4,19.3c12.8,12.9,19.5,28.6,19.9,47.1v575.9c-0.4,18.6-7,34.3-19.9,47.2
		s-28.3,19.3-46.4,19.3s-33.6-6.4-46.4-19.3S7515.3,853.3,7515.3,834.8z"/>
</g>
<g>
	<path class="st4" d="M5275.3-488.6L5403-652.7c3.7-4.4,8-6.6,12.7-6.6c4.1,0,7.6,1.5,10.5,4.4c2.9,2.9,4.4,6.5,4.4,10.7
		c0,3.3-0.8,6.1-2.4,8.5l-133.5,171.6l132.7,170.8c2.1,2.6,3.2,5.8,3.2,9.5c0,4.2-1.5,7.8-4.4,10.7c-2.9,2.9-6.4,4.4-10.5,4.4
		c-4.7,0-8.5-1.7-11.5-5.1l-128.9-165.3l-128.9,165.3c-2.8,3.4-6.5,5.1-11.2,5.1c-4.2,0-7.8-1.5-10.7-4.4c-2.9-2.9-4.4-6.5-4.4-10.7
		c0-3.6,1.1-6.8,3.4-9.5L5256.1-464l-133.3-171.9c-1.8-2.1-2.7-4.9-2.7-8.3c0-4.2,1.5-7.8,4.4-10.7c2.9-2.9,6.5-4.4,10.7-4.4
		c4.9,0,9,2.2,12.5,6.6L5275.3-488.6z"/>
	<path class="st4" d="M5529-608c0,5.7-2,10.5-5.9,14.4c-3.9,3.9-8.7,5.9-14.4,5.9c-5.5,0-10.3-2-14.3-5.9c-4-3.9-6-8.7-6-14.4
		c0-5.5,2-10.3,6-14.3s8.7-6,14.3-6c5.7,0,10.5,2,14.4,6C5527.1-618.3,5529-613.6,5529-608z M5493.6-527c0-4.2,1.5-7.8,4.4-10.7
		c2.9-2.9,6.5-4.4,10.7-4.4c4.2,0,7.9,1.5,10.9,4.4c3,2.9,4.5,6.5,4.5,10.7v243.2c0,4.2-1.5,7.8-4.5,10.7s-6.6,4.4-10.9,4.4
		c-4.2,0-7.8-1.5-10.7-4.4s-4.4-6.5-4.4-10.7V-527z"/>
	<path class="st4" d="M5831.7-318.2c-32.9,33-68.3,49.6-106.2,49.6c-37.8,0-70-13.3-96.7-40c-26.7-26.7-40-58.9-40-96.7
		s13.3-70,40-96.7c26.7-26.7,58.9-40,96.7-40s70,13.3,96.7,40c26.7,26.7,40,58.9,40,96.7v121.6c0,4.2-1.5,7.8-4.4,10.7
		c-2.9,2.9-6.5,4.4-10.7,4.4s-7.9-1.5-10.9-4.4c-3-2.9-4.5-6.5-4.5-10.7V-318.2L5831.7-318.2z M5725.5-511.8
		c-29.3,0-54.4,10.4-75.2,31.3c-20.8,20.8-31.3,45.9-31.3,75.2s10.4,54.4,31.3,75.2c20.8,20.8,45.9,31.3,75.2,31.3
		s54.4-10.4,75.2-31.3c20.7-20.7,31-45.7,31-75.2s-10.3-54.5-31-75.2C5779.9-501.4,5754.8-511.8,5725.5-511.8z"/>
	<path class="st4" d="M6174.8-405.4c0,37.8-13.3,70-40,96.7c-26.7,26.7-58.9,40-96.7,40s-70-13.3-96.7-40
		c-26.7-26.7-40-58.9-40-96.7s13.3-70,40-96.7c26.7-26.7,58.9-40,96.7-40s70,13.3,96.7,40C6161.4-475.4,6174.8-443.2,6174.8-405.4z
		 M6038-511.8c-29.3,0-54.4,10.4-75.2,31.3c-20.8,20.8-31.3,45.9-31.3,75.2s10.4,54.4,31.3,75.2c20.8,20.8,45.9,31.3,75.2,31.3
		s54.4-10.4,75.2-31.3c20.7-20.7,31-45.7,31-75.2s-10.3-54.5-31-75.2C6092.4-501.4,6067.3-511.8,6038-511.8z"/>
	<path class="st4" d="M6243.1-283.8c0,4.2-1.5,7.8-4.4,10.7s-6.5,4.4-10.7,4.4c-4.2,0-7.9-1.5-10.9-4.4c-3-2.9-4.5-6.5-4.5-10.7
		V-527c0-4.2,1.5-7.8,4.5-10.7c3-2.9,6.6-4.4,10.9-4.4c4.2,0,7.8,1.5,10.7,4.4c2.9,2.9,4.4,6.5,4.4,10.7v16.4
		c24.7-21,50-31.5,75.9-31.5c29.3,0,54.4,10.4,75.2,31.3c5,5.2,10.3,11.6,15.9,19c5.5-7.5,10.9-13.8,16.1-19
		c20.8-20.8,45.9-31.3,75.2-31.3s54.4,10.4,75.2,31.3c20.7,20.7,31,45.7,31,75.2v151.9c0,4.2-1.5,7.8-4.4,10.7
		c-2.9,2.9-6.5,4.4-10.7,4.4s-7.8-1.5-10.7-4.4c-2.9-2.9-4.4-6.5-4.4-10.7v-152c0-21-7.5-38.9-22.5-53.7c-15-15-32.8-22.5-53.5-22.5
		c-20.8,0-38.7,7.5-53.7,22.5c-14.8,14.8-22.2,32.7-22.2,53.7v151.9c0,4.2-1.5,7.8-4.5,10.7s-6.6,4.4-10.9,4.4
		c-4.2,0-7.8-1.5-10.7-4.4s-4.4-6.5-4.4-10.7v-151.9c0-21-7.4-38.9-22.2-53.7c-15-15-32.9-22.5-53.7-22.5s-38.7,7.5-53.7,22.5
		c-14.8,14.8-22.2,32.7-22.2,53.7v151.9H6243.1z"/>
	<path class="st4" d="M6700.9-608c0,5.7-2,10.5-5.9,14.4c-3.9,3.9-8.7,5.9-14.4,5.9c-5.5,0-10.3-2-14.3-5.9c-4-3.9-6-8.7-6-14.4
		c0-5.5,2-10.3,6-14.3s8.7-6,14.3-6c5.7,0,10.5,2,14.4,6S6700.9-613.6,6700.9-608z M6665.5-527c0-4.2,1.5-7.8,4.4-10.7
		c2.9-2.9,6.5-4.4,10.7-4.4c4.2,0,7.9,1.5,10.9,4.4c3,2.9,4.5,6.5,4.5,10.7v243.2c0,4.2-1.5,7.8-4.5,10.7s-6.6,4.4-10.9,4.4
		c-4.2,0-7.8-1.5-10.7-4.4s-4.4-6.5-4.4-10.7V-527z"/>
</g>
<g>
	<path class="st4" d="M6127.3,1088.2c0-4.2,1.5-7.8,4.4-10.7s6.5-4.4,10.7-4.4s7.8,1.5,10.7,4.4s4.4,6.5,4.4,10.7v34.4
		c33-33,68.5-49.6,106.4-49.6c20.3,0,37.8,3.2,52.2,9.5c2.6,1,5,2.5,7.1,4.6c2.8,2.8,4.2,6.3,4.2,10.7c0,4.2-1.5,7.8-4.4,10.7
		s-6.5,4.4-10.7,4.4c-2.6,0-4.9-0.5-6.8-1.5c-11.4-5.5-25.2-8.3-41.5-8.3c-29.3,0-54.4,10.4-75.2,31.3
		c-20.8,20.7-31.3,45.7-31.3,75.2v121.6c0,4.2-1.5,7.8-4.4,10.7s-6.5,4.4-10.7,4.4s-7.8-1.5-10.7-4.4s-4.4-6.5-4.4-10.7
		L6127.3,1088.2L6127.3,1088.2z"/>
	<path class="st4" d="M6634.4,1209.8c0,37.8-13.3,70-40,96.7s-58.9,40-96.7,40c-37.8,0-70-13.3-96.7-40s-40-58.9-40-96.7
		c0-37.8,13.3-70,40-96.7s58.9-40,96.7-40c37.8,0,70,13.3,96.7,40C6621,1139.8,6634.4,1172.1,6634.4,1209.8z M6497.6,1103.4
		c-29.3,0-54.4,10.4-75.2,31.3c-20.8,20.8-31.3,45.9-31.3,75.2s10.4,54.4,31.3,75.2c20.8,20.8,45.9,31.3,75.2,31.3
		s54.4-10.4,75.2-31.3c20.7-20.7,31-45.7,31-75.2s-10.3-54.5-31-75.2C6552,1113.8,6526.9,1103.4,6497.6,1103.4z"/>
	<path class="st4" d="M6926.8,1331.4c0,4.2-1.5,7.8-4.5,10.7s-6.6,4.4-10.9,4.4c-4.2,0-7.8-1.5-10.7-4.4s-4.4-6.5-4.4-10.7v-28.3
		c-29.9,29-62,43.5-96.2,43.5c-34.7,0-64.5-12.3-89.6-36.9c-24.6-24.7-36.9-54.7-36.9-89.8v-131.6c0-4.2,1.5-7.8,4.4-10.7
		s6.5-4.4,10.7-4.4s7.8,1.5,10.7,4.4s4.4,6.5,4.4,10.7v131.6c0,26.7,9.4,49.4,28.1,68.1c19.4,18.9,42.1,28.3,68.1,28.3
		c26.4,0,49-9.4,67.9-28.3c18.9-18.7,28.3-41.4,28.3-68.1v-131.6c0-4.2,1.5-7.8,4.4-10.7s6.5-4.4,10.7-4.4s7.9,1.5,10.9,4.4
		s4.5,6.5,4.5,10.7v243.1H6926.8z"/>
	<path class="st4" d="M7104.1,1316.3c4.2,0,7.9,1.5,10.9,4.4s4.5,6.5,4.5,10.7s-1.5,7.8-4.5,10.7s-6.6,4.4-10.9,4.4
		c-64.1,0-96.2-32.1-96.2-96.2v-147h-25.1c-4.2,0-7.9-1.5-10.9-4.4s-4.5-6.5-4.5-10.7s1.5-7.8,4.5-10.7c3-2.9,6.6-4.4,10.9-4.4h25.1
		V970.8c0-4.2,1.5-7.8,4.4-10.7s6.5-4.4,10.7-4.4s7.9,1.5,10.9,4.4s4.5,6.5,4.5,10.7v102.3h45.7c4.2,0,7.9,1.5,10.9,4.4
		s4.5,6.5,4.5,10.7s-1.5,7.8-4.5,10.7c-3,2.9-6.6,4.4-10.9,4.4h-45.7v147C7038.4,1294.3,7060.3,1316.3,7104.1,1316.3z"/>
	<path class="st4" d="M7361.4,1287.7c4.2,0,7.8,1.5,10.7,4.5c2.9,3,4.4,6.6,4.4,10.9c0,4.2-1.3,7.7-3.9,10.5
		c-25.4,22-55.1,33-89.1,33c-37.8,0-70-13.3-96.7-40s-40-58.9-40-96.7c0-37.8,13.3-70,40-96.7s58.9-40,96.7-40
		c37.8,0,70,13.3,96.7,40s40,58.9,40,96.7c0,4.2-1.5,7.8-4.4,10.7s-6.5,4.4-10.7,4.4h-227.5c4.9,24.4,15.1,44.4,30.8,60.1
		c20.8,20.8,45.9,31.3,75.2,31.3c13.3,0,25.7-2.2,37.1-6.5s21.8-10.5,31.3-18.7C7354.6,1288.8,7357.8,1287.7,7361.4,1287.7z
		 M7389.2,1194.7c-4.6-24.3-14.7-44.3-30.5-60.1c-20.8-20.8-45.9-31.3-75.2-31.3s-54.4,10.4-75.2,31.3
		c-15.6,15.6-25.9,35.6-30.8,60.1H7389.2z"/>
	<path class="st4" d="M7460,1088.2c0-4.2,1.5-7.8,4.4-10.7s6.5-4.4,10.7-4.4s7.8,1.5,10.7,4.4s4.4,6.5,4.4,10.7v34.4
		c33-33,68.5-49.6,106.4-49.6c20.3,0,37.8,3.2,52.2,9.5c2.6,1,5,2.5,7.1,4.6c2.8,2.8,4.2,6.3,4.2,10.7c0,4.2-1.5,7.8-4.4,10.7
		s-6.5,4.4-10.7,4.4c-2.6,0-4.9-0.5-6.8-1.5c-11.4-5.5-25.2-8.3-41.5-8.3c-29.3,0-54.4,10.4-75.2,31.3
		c-20.8,20.7-31.3,45.7-31.3,75.2v121.6c0,4.2-1.5,7.8-4.4,10.7s-6.5,4.4-10.7,4.4s-7.8-1.5-10.7-4.4s-4.4-6.5-4.4-10.7L7460,1088.2
		L7460,1088.2z"/>
</g>
</svg>
